<mxfile host="app.diagrams.net" modified="2023-11-29T09:45:03.993Z" agent="Mozilla/5.0 (Windows NT 10.0; Win64; x64) AppleWebKit/537.36 (KHTML, like Gecko) Chrome/103.0.0.0 Safari/537.36" etag="XCnVAY6ExuIVAZLvX1HI" version="22.1.4" type="github">
  <diagram name="Page-1" id="ShheRPUKKzBshwlSDHYq">
    <mxGraphModel dx="1121" dy="613" grid="1" gridSize="10" guides="1" tooltips="1" connect="1" arrows="1" fold="1" page="1" pageScale="1" pageWidth="4681" pageHeight="3300" math="0" shadow="0">
      <root>
        <mxCell id="0" />
        <mxCell id="1" parent="0" />
        <mxCell id="P_ZGVv6pG1mM6uEF-SW_-5" style="edgeStyle=orthogonalEdgeStyle;rounded=0;orthogonalLoop=1;jettySize=auto;html=1;curved=1;" edge="1" parent="1" source="P_ZGVv6pG1mM6uEF-SW_-1" target="P_ZGVv6pG1mM6uEF-SW_-4">
          <mxGeometry relative="1" as="geometry" />
        </mxCell>
        <mxCell id="P_ZGVv6pG1mM6uEF-SW_-7" style="edgeStyle=orthogonalEdgeStyle;rounded=0;orthogonalLoop=1;jettySize=auto;html=1;curved=1;" edge="1" parent="1" source="P_ZGVv6pG1mM6uEF-SW_-1" target="P_ZGVv6pG1mM6uEF-SW_-6">
          <mxGeometry relative="1" as="geometry" />
        </mxCell>
        <mxCell id="P_ZGVv6pG1mM6uEF-SW_-1" value="DryTooling Tech" style="ellipse;whiteSpace=wrap;html=1;" vertex="1" parent="1">
          <mxGeometry x="2281" y="1610" width="120" height="80" as="geometry" />
        </mxCell>
        <mxCell id="P_ZGVv6pG1mM6uEF-SW_-2" value="DryTooling.jl" style="ellipse;whiteSpace=wrap;html=1;" vertex="1" parent="1">
          <mxGeometry x="2520" y="1610" width="120" height="80" as="geometry" />
        </mxCell>
        <mxCell id="P_ZGVv6pG1mM6uEF-SW_-3" style="edgeStyle=orthogonalEdgeStyle;rounded=0;orthogonalLoop=1;jettySize=auto;html=1;entryX=0;entryY=0.5;entryDx=0;entryDy=0;curved=1;" edge="1" parent="1" source="P_ZGVv6pG1mM6uEF-SW_-1" target="P_ZGVv6pG1mM6uEF-SW_-2">
          <mxGeometry relative="1" as="geometry" />
        </mxCell>
        <mxCell id="P_ZGVv6pG1mM6uEF-SW_-4" value="Training" style="ellipse;whiteSpace=wrap;html=1;" vertex="1" parent="1">
          <mxGeometry x="2280" y="1800" width="120" height="80" as="geometry" />
        </mxCell>
        <mxCell id="P_ZGVv6pG1mM6uEF-SW_-6" value="Consulting" style="ellipse;whiteSpace=wrap;html=1;" vertex="1" parent="1">
          <mxGeometry x="2040" y="1610" width="120" height="80" as="geometry" />
        </mxCell>
      </root>
    </mxGraphModel>
  </diagram>
</mxfile>
